<?xml version="1.0" standalone="no"?>
<!DOCTYPE svg PUBLIC "-//W3C//DTD SVG 20010904//EN"
 "http://www.w3.org/TR/2001/REC-SVG-20010904/DTD/svg10.dtd">
<svg version="1.0" xmlns="http://www.w3.org/2000/svg"
 width="2083.000000pt" height="1650.000000pt" viewBox="0 0 2083.000000 1650.000000"
 preserveAspectRatio="xMidYMid meet">

<g transform="translate(0.000000,1650.000000) scale(0.100000,-0.100000)"
fill="#000000" stroke="none">
<path d="M10090 16260 c0 -6 -50 -10 -127 -11 -127 0 -271 -10 -433 -29 -47
-6 -110 -13 -140 -16 -30 -3 -64 -9 -75 -14 -11 -5 -40 -11 -65 -14 -95 -11
-346 -58 -455 -85 -71 -18 -119 -30 -160 -40 -104 -25 -164 -41 -205 -54 -25
-8 -65 -20 -90 -27 -25 -7 -54 -16 -65 -20 -11 -4 -51 -17 -90 -30 -109 -34
-405 -145 -504 -187 -20 -9 -45 -19 -56 -24 -11 -4 -55 -24 -98 -44 -43 -19
-81 -35 -83 -35 -7 0 -427 -210 -439 -220 -5 -4 -30 -19 -55 -32 -263 -147
-469 -279 -710 -453 -312 -227 -590 -464 -850 -724 -486 -488 -873 -1002
-1215 -1616 -144 -258 -316 -636 -419 -920 -26 -71 -54 -147 -61 -167 -8 -20
-33 -93 -55 -162 -23 -69 -45 -126 -51 -126 -9 0 -183 130 -275 206 -146 120
-189 157 -284 243 -243 219 -640 627 -821 841 -143 171 -220 265 -293 359
-361 468 -670 944 -983 1516 -55 99 -304 598 -360 720 -71 154 -104 228 -130
290 -14 33 -35 83 -48 110 -18 39 -181 449 -215 540 -4 11 -15 36 -24 55 -12
25 -15 28 -11 10 8 -41 1084 -4353 1094 -4385 5 -16 21 -77 35 -135 14 -58 37
-152 52 -210 14 -58 30 -121 34 -140 29 -123 111 -450 119 -475 5 -16 21 -77
35 -135 68 -282 131 -532 549 -2205 l342 -1370 60 -8 c33 -4 107 -12 165 -18
206 -21 394 -50 620 -95 91 -18 300 -69 391 -95 l66 -19 68 -173 c90 -229 192
-461 278 -632 575 -1152 1467 -2136 2565 -2834 494 -314 1091 -592 1642 -764
213 -67 265 -81 480 -132 107 -26 214 -51 236 -57 40 -10 44 -14 109 -131 217
-395 499 -1024 697 -1552 16 -44 38 -102 49 -129 10 -27 19 -54 19 -61 0 -7 7
-19 17 -26 14 -13 16 -11 11 11 -10 43 -78 371 -100 475 -11 55 -24 118 -29
140 -26 124 -103 496 -109 530 -4 22 -24 117 -43 210 -80 389 -88 428 -80 436
4 4 46 4 93 -1 253 -28 424 -35 800 -35 377 0 546 7 799 35 52 6 96 8 99 5 6
-6 -6 -68 -73 -390 -25 -121 -66 -319 -91 -440 -39 -192 -61 -302 -94 -460 -5
-22 -29 -139 -54 -259 -25 -121 -48 -227 -51 -237 -3 -10 -2 -20 3 -23 5 -3
26 41 46 97 91 251 275 706 362 894 14 32 46 103 71 158 91 203 357 717 381
735 13 11 40 22 61 26 77 13 413 97 556 139 833 245 1615 645 2320 1186 493
378 1018 922 1411 1460 86 118 300 442 354 536 88 152 103 179 157 278 30 55
79 150 108 210 83 172 145 305 145 310 0 2 14 34 30 70 17 36 30 71 30 78 0 7
4 17 9 23 7 8 60 143 93 238 7 21 22 45 33 52 48 31 537 142 775 175 250 35
269 37 403 50 64 6 119 15 122 19 2 4 23 81 45 171 22 90 45 180 50 199 6 19
33 127 61 240 27 113 66 268 85 345 19 77 46 187 60 245 14 58 30 119 35 135
5 17 333 1331 729 2920 396 1590 724 2904 729 2920 5 17 30 116 55 220 26 105
50 204 55 220 5 17 30 116 55 220 46 187 59 241 76 300 4 17 15 59 24 95 8 36
27 112 42 170 14 58 30 123 35 145 20 80 28 114 78 310 28 110 51 205 50 210
0 9 -18 -28 -23 -50 -2 -5 -8 -21 -14 -35 -7 -14 -43 -104 -81 -200 -72 -182
-153 -379 -190 -465 -27 -60 -37 -83 -91 -200 -23 -49 -56 -121 -73 -160 -69
-153 -292 -587 -373 -728 -19 -32 -34 -60 -34 -62 0 -6 -186 -322 -265 -450
-67 -109 -302 -463 -373 -562 -270 -376 -567 -739 -822 -1007 -245 -257 -524
-524 -680 -652 -19 -16 -37 -31 -40 -34 -31 -36 -372 -300 -387 -300 -6 0 -50
-28 -99 -62 -49 -35 -100 -71 -114 -81 -14 -9 -71 -47 -128 -85 -56 -37 -140
-91 -185 -121 -79 -52 -196 -122 -302 -181 -71 -39 -400 -204 -460 -230 -27
-12 -68 -30 -90 -40 -294 -131 -729 -276 -1025 -342 -25 -5 -61 -14 -80 -18
-49 -11 -238 -47 -280 -54 -19 -3 -64 -10 -100 -16 -207 -33 -431 -50 -640
-48 -93 1 -120 3 -67 5 85 4 87 4 87 28 0 14 -4 25 -10 25 -5 0 -10 7 -10 15
0 10 -10 15 -29 15 -17 0 -33 5 -36 10 -3 6 -14 10 -24 10 -18 0 -91 61 -91
77 0 12 -38 30 -84 38 -25 5 -36 13 -36 25 0 10 -7 20 -15 24 -8 3 -15 12 -15
21 0 10 -10 15 -30 15 -18 0 -33 6 -36 15 -4 8 -15 15 -25 15 -10 0 -19 6 -19
14 0 10 -13 16 -37 18 -31 2 -39 7 -41 26 -2 12 -10 22 -18 22 -8 0 -14 9 -14
20 0 13 -7 20 -19 20 -15 0 -21 8 -23 33 -3 29 -6 32 -38 33 -62 1 -70 3 -70
24 0 16 -7 20 -34 20 -21 0 -36 6 -40 15 -3 8 -12 15 -21 15 -8 0 -15 9 -15
20 0 11 7 20 15 20 8 0 15 9 15 20 0 17 -7 20 -44 20 -25 0 -48 5 -51 10 -3 6
-20 10 -37 10 -17 0 -47 4 -67 10 -20 5 -76 19 -126 30 -49 12 -150 38 -223
58 -146 39 -152 39 -152 -22 0 -16 -5 -58 -11 -95 -5 -36 -14 -95 -20 -131 -5
-36 -17 -112 -26 -170 -8 -58 -18 -129 -20 -157 -5 -50 -23 -76 -23 -33 0 16
-7 20 -35 20 -19 0 -35 5 -35 11 0 22 -51 59 -81 59 -22 0 -29 5 -29 20 0 11
-6 20 -13 20 -7 0 -18 9 -25 20 -8 13 -23 20 -42 20 -17 0 -30 4 -30 10 0 12
-48 60 -60 60 -5 0 -12 9 -15 20 -5 15 -15 20 -41 20 -19 0 -34 5 -34 11 0 14
-47 59 -61 59 -5 0 -9 9 -9 20 0 13 -7 20 -19 20 -10 0 -21 9 -24 20 -4 15
-14 20 -36 20 -19 0 -34 6 -37 15 -4 8 -12 15 -20 15 -8 0 -14 9 -14 20 0 11
-4 20 -9 20 -13 0 -101 87 -101 100 0 5 -9 10 -20 10 -13 0 -20 7 -20 20 0 11
-7 20 -15 20 -9 0 -19 8 -22 18 -10 25 -172 182 -189 182 -8 0 -14 6 -14 13 0
15 -44 57 -59 57 -6 0 -11 17 -11 40 0 33 -3 40 -20 40 -11 0 -20 4 -20 9 0
14 -45 61 -59 61 -6 0 -11 9 -11 20 0 13 -7 20 -20 20 -15 0 -20 7 -20 29 0
30 -37 81 -59 81 -6 0 -11 13 -11 30 0 19 -7 34 -20 42 -11 7 -20 18 -20 25 0
7 -9 13 -20 13 -13 0 -20 7 -20 20 0 11 -7 20 -15 20 -10 0 -15 10 -15 31 0
22 -5 32 -20 36 -15 4 -20 14 -20 38 0 25 -5 35 -20 40 -11 3 -20 13 -20 21 0
8 -7 14 -15 14 -10 0 -15 10 -15 30 0 19 -7 34 -20 42 -13 9 -20 24 -20 45 0
26 -4 33 -20 33 -16 0 -20 7 -20 34 0 21 -6 36 -15 40 -9 3 -15 18 -15 37 0
22 -5 32 -20 36 -14 4 -20 14 -20 34 0 18 -7 32 -20 39 -13 7 -20 21 -20 40 0
20 -6 31 -20 35 -15 5 -20 15 -20 41 0 24 -5 34 -15 34 -11 0 -15 12 -15 51 0
42 -3 52 -20 56 -15 4 -20 14 -20 38 0 25 -5 35 -20 40 -16 5 -20 15 -20 56 0
35 -4 51 -15 55 -11 4 -15 21 -15 56 0 41 -3 51 -20 55 -17 5 -20 14 -20 59 0
47 -2 54 -20 54 -18 0 -20 7 -20 69 0 52 -4 70 -15 75 -12 4 -15 24 -15 92 0
77 -2 86 -20 91 -15 4 -20 14 -20 42 0 26 -6 41 -21 51 -11 8 -34 28 -51 44
-30 28 -31 31 -36 142 -4 101 -3 114 12 114 9 0 16 5 16 10 0 6 -4 10 -9 10
-5 0 -13 9 -16 20 -3 11 -15 20 -26 20 -12 0 -19 7 -19 20 0 11 5 20 10 20 6
0 10 7 10 15 0 8 -4 15 -10 15 -5 0 -10 9 -10 20 0 13 -7 20 -20 20 -11 0 -20
7 -20 15 0 8 5 15 10 15 18 0 10 29 -12 45 -23 15 -23 18 -26 285 -3 259 -4
270 -23 270 -21 0 -26 25 -6 34 10 5 10 7 0 12 -7 3 -13 12 -13 20 0 8 -4 14
-9 14 -9 0 -17 31 -28 103 -4 33 -3 37 16 37 20 0 21 5 21 130 0 80 4 130 10
130 6 0 10 11 10 25 0 14 -4 25 -10 25 -5 0 -10 7 -10 15 0 8 -4 15 -9 15 -9
0 -17 31 -28 103 -4 33 -3 37 16 37 12 0 21 6 21 14 0 11 -9 13 -35 9 l-35 -6
3 83 c2 54 7 85 15 88 15 5 16 109 1 114 -6 2 -13 41 -16 91 -5 76 -4 87 11
87 9 0 16 8 16 20 0 11 -7 20 -15 20 -9 0 -15 9 -15 25 0 18 -5 25 -20 25 -11
0 -20 5 -20 10 0 6 5 10 10 10 6 0 10 10 10 21 0 19 -4 21 -30 16 -17 -4 -30
-2 -30 3 0 6 14 10 31 10 18 0 48 4 68 9 45 12 285 39 414 47 87 5 97 8 97 25
0 12 7 19 20 19 18 0 20 7 20 55 0 48 2 55 20 55 16 0 20 7 20 30 l0 30 -75 0
c-73 0 -75 1 -75 25 0 18 5 25 20 25 17 0 20 7 20 40 0 29 4 40 15 40 10 0 15
10 15 29 0 28 -2 29 -35 24 -31 -5 -35 -3 -35 17 0 13 8 24 20 27 14 4 20 14
20 34 0 17 9 37 20 46 11 10 20 28 20 41 0 12 7 25 15 28 8 4 15 12 15 20 0 8
1 15 3 15 1 1 76 5 167 9 159 6 155 6 -112 8 -180 1 -278 -2 -278 -8z m2057
-6277 c-2 -16 -4 -5 -4 22 0 28 2 40 4 28 2 -13 2 -35 0 -50z"/>
</g>
</svg>
